<?xml version="1.0" standalone="no"?><!DOCTYPE svg PUBLIC "-//W3C//DTD SVG 1.1//EN" "http://www.w3.org/Graphics/SVG/1.1/DTD/svg11.dtd"><svg t="1673640651059" class="icon" viewBox="0 0 1024 1024" version="1.1" xmlns="http://www.w3.org/2000/svg" p-id="2684" xmlns:xlink="http://www.w3.org/1999/xlink" width="200" height="200"><path d="M815.020408 1024H208.979592C94.040816 1024 0 929.959184 0 815.020408V208.979592C0 94.040816 94.040816 0 208.979592 0h606.040816c114.938776 0 208.979592 94.040816 208.979592 208.979592v606.040816c0 114.938776-94.040816 208.979592-208.979592 208.979592z" fill="#10CFF1" p-id="2685"></path><path d="M350.040816 208.979592C271.673469 208.979592 208.979592 271.673469 208.979592 350.040816S271.673469 491.102041 350.040816 491.102041H470.204082c11.493878 0 20.897959-9.404082 20.897959-20.897959V350.040816C491.102041 271.673469 428.408163 208.979592 350.040816 208.979592z" fill="#FFFFFF" fill-opacity=".7" p-id="2686"></path><path d="M673.959184 208.979592C752.326531 208.979592 815.020408 271.673469 815.020408 350.040816S752.326531 491.102041 673.959184 491.102041H553.795918c-11.493878 0-20.897959-9.404082-20.897959-20.897959V350.040816C532.897959 271.673469 595.591837 208.979592 673.959184 208.979592z" fill="#FFFFFF" opacity=".88" p-id="2687"></path><path d="M350.040816 815.020408C271.673469 815.020408 208.979592 752.326531 208.979592 673.959184S271.673469 532.897959 350.040816 532.897959H470.204082c11.493878 0 20.897959 9.404082 20.897959 20.897959v120.163266C491.102041 752.326531 428.408163 815.020408 350.040816 815.020408z" fill="#FFFFFF" opacity=".8" p-id="2688"></path><path d="M355.265306 261.22449c-52.244898 0-94.040816 41.795918-94.040816 94.040816s41.795918 94.040816 94.040816 94.040816h80.457143c7.314286 0 13.583673-6.269388 13.583673-13.583673V355.265306c0-52.244898-41.795918-94.040816-94.040816-94.040816z" fill="#FFFFFF" p-id="2689"></path><path d="M668.734694 261.22449c52.244898 0 94.040816 41.795918 94.040816 94.040816s-41.795918 94.040816-94.040816 94.040816h-80.457143c-7.314286 0-13.583673-6.269388-13.583673-13.583673V355.265306c0-52.244898 41.795918-94.040816 94.040816-94.040816z" fill="#FFFFFF" fill-opacity=".6" p-id="2690"></path><path d="M355.265306 762.77551c-52.244898 0-94.040816-41.795918-94.040816-94.040816s41.795918-94.040816 94.040816-94.040816h80.457143c7.314286 0 13.583673 6.269388 13.583673 13.583673V668.734694c0 52.244898-41.795918 94.040816-94.040816 94.040816z" fill="#FFFFFF" fill-opacity=".5" p-id="2691"></path><path d="M673.959184 815.020408C752.326531 815.020408 815.020408 752.326531 815.020408 673.959184S752.326531 532.897959 673.959184 532.897959H553.795918c-11.493878 0-20.897959 9.404082-20.897959 20.897959v120.163266C532.897959 752.326531 595.591837 815.020408 673.959184 815.020408z" fill="#FFFFFF" fill-opacity=".4" p-id="2692"></path><path d="M668.734694 762.77551c52.244898 0 94.040816-41.795918 94.040816-94.040816s-41.795918-94.040816-94.040816-94.040816h-80.457143c-7.314286 0-13.583673 6.269388-13.583673 13.583673V668.734694c0 52.244898 41.795918 94.040816 94.040816 94.040816z" fill="#FFFFFF" fill-opacity=".4" p-id="2693"></path></svg>